<svg xmlns="http://www.w3.org/2000/svg" viewBox="0 0 64 64" fill="none">
    <!-- Brain shape -->
    <path
        d="M32 8C20 8 12 18 12 28c0 6 2.5 11 6.5 14.5C22 45.5 24 50 24 54v2c0 1.1.9 2 2 2h12c1.1 0 2-.9 2-2v-2c0-4 2-8.5 5.5-11.5C49.5 39 52 34 52 28c0-10-8-20-20-20z"
        fill="#bd93f9" opacity="0.9" />
    <!-- Brain details -->
    <path d="M32 12c-8 0-16 7-16 16 0 5 2 9 5.5 12" stroke="#f8f8f2" stroke-width="2"
        stroke-linecap="round" fill="none" />
    <path d="M26 20c-2 2-3 5-3 8" stroke="#f8f8f2" stroke-width="1.5" stroke-linecap="round"
        fill="none" />
    <path d="M32 14v10M32 24c4 0 7 3 7 6" stroke="#f8f8f2" stroke-width="1.5" stroke-linecap="round"
        fill="none" />
    <path d="M38 18c2 2 4 5 4 9" stroke="#f8f8f2" stroke-width="1.5" stroke-linecap="round"
        fill="none" />
    <!-- Lightning bolt (cram/energy) -->
    <path d="M30 30l-4 8h6l-3 8 10-12h-7l4-8z" fill="#f1fa8c" stroke="#ffb86c" stroke-width="0.5" />
    <!-- Base/bulb bottom -->
    <rect x="26" y="54" width="12" height="2" rx="1" fill="#6272a4" />
    <rect x="27" y="57" width="10" height="1.5" rx="0.75" fill="#6272a4" />
</svg>